<svg xmlns="http://www.w3.org/2000/svg" viewBox="0 0 3305.4 512"><defs><style>.a{fill:#cc4b4c;}.b{fill:#285680;}.c{fill:#f29c1f;}.d{fill:#f3d55b;}</style></defs><title>nc-docs-logo-light</title><path class="a" d="M270.7,504.5,505,183.2a35.9,35.9,0,0,0,.9-41.3L421.5,16.1A36.4,36.4,0,0,0,391.2,0H120.8A36.3,36.3,0,0,0,90.5,16.1L6.1,141.9a36.1,36.1,0,0,0,.8,41.3L241.3,504.5a18.2,18.2,0,0,0,29.4,0Z"/><path class="b" d="M36.8,157.4,116.2,39.2l7.4-3.9H388.4l7.4,3.9,79.4,117.4a8.9,8.9,0,0,1-.2,10.1L263.2,455.3A9,9,0,0,1,256,459a8.9,8.9,0,0,1-7.2-3.7L37,167.5A8.7,8.7,0,0,1,36.8,157.4Z"/><path class="c" d="M264,52.3l36.4,77.5a8.5,8.5,0,0,0,6.6,5l82.1,12.6a8.8,8.8,0,0,1,5,14.8l-59.9,61.5a8.6,8.6,0,0,0-2.4,7.6l14.1,86.2a9,9,0,0,1-3.7,8.7,8.9,8.9,0,0,1-9.4.4l-72.5-40.1a9.3,9.3,0,0,0-8.6,0l-72.5,40.1a8.7,8.7,0,0,1-9.4-.5,9,9,0,0,1-3.6-8.6l14-86.2a8.6,8.6,0,0,0-2.4-7.6l-59.9-61.5a8.8,8.8,0,0,1,5-14.8L205,134.8a8.8,8.8,0,0,0,6.7-5L248,52.3a8.9,8.9,0,0,1,16,0Z"/><path class="d" d="M251.7,246.2l-26,14.4a8.9,8.9,0,0,1-13-9.2l5.3-32.1a9,9,0,0,0-2.4-7.5l-24.4-25a9.1,9.1,0,0,1-2.1-9,9,9,0,0,1,7.1-5.9l32.7-5a9.1,9.1,0,0,0,6.7-5L248,135.4a8.8,8.8,0,0,1,16,0l12.4,26.5a9.1,9.1,0,0,0,6.7,5l32.7,5a9,9,0,0,1,7.1,5.9,9.1,9.1,0,0,1-2.1,9l-24.4,25a9,9,0,0,0-2.4,7.5l5.3,32.1a8.9,8.9,0,0,1-13,9.2l-26-14.4A8.8,8.8,0,0,0,251.7,246.2Z"/><path d="M972.2,415.8a32.9,32.9,0,0,1-2.8,13.7,34.4,34.4,0,0,1-18.3,18.2,35.7,35.7,0,0,1-13.5,2.6,39.4,39.4,0,0,1-12.8-2.3,30,30,0,0,1-11.4-7.7L662.9,178.7V445.1H594.3V96.2a32.6,32.6,0,0,1,6-19.1,36.6,36.6,0,0,1,15.1-12.8,35.4,35.4,0,0,1,20.1-2A33.2,33.2,0,0,1,653.1,72L903.6,333.3V66.9h68.6Z"/><path d="M1390.4,445.1H1143a107.7,107.7,0,0,1-42-9.3,100.8,100.8,0,0,1-20.5-12.2,83,83,0,0,1-17.2-18.2,90.7,90.7,0,0,1-12-24.8,104.4,104.4,0,0,1-4.5-31.8V163.2a100.7,100.7,0,0,1,2.2-20.4,111.8,111.8,0,0,1,7-21.7,98.5,98.5,0,0,1,12.4-20.4,86.2,86.2,0,0,1,18.3-17.3,93,93,0,0,1,24.7-12,103.1,103.1,0,0,1,31.6-4.5h247.4v68.6H1143c-8.9,0-15.8,2.4-20.5,7.1s-7.1,11.8-7.1,21.1V348.8q0,13.2,7.2,20.4c4.8,4.9,11.6,7.3,20.4,7.3h247.4Z"/><path d="M2008.1,286.9q0,34.5-12,63.5a150.8,150.8,0,0,1-33,50,153.4,153.4,0,0,1-50.1,32.8q-29.1,11.9-63.1,11.9H1664.8a34.9,34.9,0,0,1-13.7-2.7,34,34,0,0,1-10.9-7.2,34.7,34.7,0,0,1-7.3-11,36.3,36.3,0,0,1-2.6-13.7v-309a36,36,0,0,1,2.6-13.5,34.7,34.7,0,0,1,7.3-11,31.5,31.5,0,0,1,10.9-7.4,34.9,34.9,0,0,1,13.7-2.7h185.1q34,0,63.1,11.9a153.4,153.4,0,0,1,50.1,32.8,150.2,150.2,0,0,1,33,50.1c8,19.5,12,40.6,12,63.5Zm-68.5-61.7a100.7,100.7,0,0,0-6.5-36.7,79.5,79.5,0,0,0-18.3-28.3,82,82,0,0,0-28.3-18.2,99.8,99.8,0,0,0-36.6-6.5h-151v241h151a99.8,99.8,0,0,0,36.6-6.5,82,82,0,0,0,28.3-18.2,80,80,0,0,0,18.3-28.2,99.9,99.9,0,0,0,6.5-36.7Z"/><path d="M2472.2,292.1c0,23.1-3.9,44.2-11.9,63.6a152,152,0,0,1-32.9,50.1,149.8,149.8,0,0,1-50,32.8q-28.8,11.7-62.9,11.7h-92.8q-34,0-63-11.7a150.2,150.2,0,0,1-50.1-32.8,152.5,152.5,0,0,1-33.1-50.1c-8-19.4-12-40.5-12-63.6V219.9q0-34.3,12-63.4a148.5,148.5,0,0,1,33.1-50.1,152,152,0,0,1,50.1-32.9q29-11.9,63-11.8h92.8q34,0,62.9,11.8a151.6,151.6,0,0,1,50,32.9,148,148,0,0,1,32.9,50.1c8,19.4,11.9,40.5,11.9,63.4Zm-68.5-72.2a100.1,100.1,0,0,0-6.5-36.8,79.7,79.7,0,0,0-46.4-46.4,98.9,98.9,0,0,0-36.3-6.5h-92.8a99.6,99.6,0,0,0-36.5,6.5,82.5,82.5,0,0,0-28.3,18.2,78.9,78.9,0,0,0-18.4,28.2c-4.3,11-6.4,23.2-6.4,36.8v72.2c0,13.6,2.1,25.8,6.4,36.8a78.9,78.9,0,0,0,18.4,28.2,82.5,82.5,0,0,0,28.3,18.2,99.6,99.6,0,0,0,36.5,6.5H2314a99.2,99.2,0,0,0,36.5-6.5,82.9,82.9,0,0,0,28.4-18.2,80,80,0,0,0,18.3-28.2,100.1,100.1,0,0,0,6.5-36.8Z"/><path d="M2878.5,445.1H2631.2a102,102,0,0,1-20.4-2.3,105.4,105.4,0,0,1-21.7-7,97.5,97.5,0,0,1-20.4-12.2,85.8,85.8,0,0,1-17.3-18.2,90.7,90.7,0,0,1-12-24.8,107.7,107.7,0,0,1-4.4-31.8V163.2a100.7,100.7,0,0,1,2.2-20.4,105.4,105.4,0,0,1,7-21.7,98.5,98.5,0,0,1,12.4-20.4,86.2,86.2,0,0,1,18.3-17.3,90.1,90.1,0,0,1,24.7-12,102.6,102.6,0,0,1,31.6-4.5h247.3v68.6H2631.2c-9,0-15.8,2.4-20.6,7.1s-7.1,11.8-7.1,21.1V348.8c0,8.8,2.4,15.6,7.3,20.4s11.6,7.3,20.4,7.3h247.3Z"/><path d="M3305.4,333.8c0,13.5-1.7,25.7-5.1,36.5a113,113,0,0,1-13.6,28.6,88.6,88.6,0,0,1-19.8,21.1,115,115,0,0,1-23.5,14.2,119.7,119.7,0,0,1-48.2,10.9H2930.7V376.5h264.5c13.2,0,23.4-3.9,30.7-11.6s11-18.1,11-31.1a51.2,51.2,0,0,0-2.9-17.4,40.2,40.2,0,0,0-8.3-13.7,36.9,36.9,0,0,0-13.2-9,45.9,45.9,0,0,0-17.3-3.2H3037.5a120,120,0,0,1-35.8-5.9,106.2,106.2,0,0,1-35.8-19.1q-16.5-13.2-27.4-34.5t-10.9-52.3c0-20.5,3.6-37.9,10.9-52s16.4-25.7,27.4-34.6a106.4,106.4,0,0,1,35.8-19.2c12.8-4,24.7-6,35.8-6h233.4v68.6H3037.5c-13,0-23.1,4-30.4,11.9s-11,18.3-11,31.3,3.7,23.6,11,31.3,17.4,11.5,30.4,11.5h158.2a112.1,112.1,0,0,1,23.5,3,110.9,110.9,0,0,1,24.6,8.6,115.4,115.4,0,0,1,23.4,14.6,99.4,99.4,0,0,1,19.6,21.2,104.4,104.4,0,0,1,13.6,28.5A123.2,123.2,0,0,1,3305.4,333.8Z"/></svg>